<svg xmlns="http://www.w3.org/2000/svg" viewBox="0 0 200 200" fill="none">
  <defs>
    <linearGradient id="g" x1="0" y1="0" x2="1" y2="1">
      <stop offset="0%" stop-color="#4DA8FF"/>
      <stop offset="50%" stop-color="#0077FF"/>
      <stop offset="100%" stop-color="#0055CC"/>
    </linearGradient>
    <linearGradient id="s" x1="0" y1="0" x2="1" y2="1">
      <stop offset="0%" stop-color="#C0C0C0"/>
      <stop offset="100%" stop-color="#808080"/>
    </linearGradient>
  </defs>
  <!-- Shield -->
  <path d="M100 10 L185 45 L185 105 Q185 165 100 195 Q15 165 15 105 L15 45 Z" stroke="url(#g)" stroke-width="4" fill="none"/>
  <path d="M100 25 L170 53 L170 103 Q170 153 100 180 Q30 153 30 103 L30 53 Z" stroke="url(#g)" stroke-width="1" fill="none" opacity=".3"/>
  <!-- ED text -->
  <text x="100" y="115" text-anchor="middle" font-family="'Arial Black',sans-serif" font-size="56" font-weight="900" fill="url(#g)" letter-spacing="2">ED</text>
  <!-- Speed lines -->
  <line x1="55" y1="130" x2="90" y2="130" stroke="url(#g)" stroke-width="2" opacity=".5"/>
  <line x1="110" y1="130" x2="145" y2="130" stroke="url(#g)" stroke-width="2" opacity=".5"/>
  <!-- Lightning bolt accent -->
  <path d="M96 38 L104 38 L100 55 L108 55 L95 75 L99 62 L91 62 Z" fill="url(#g)" opacity=".7"/>
</svg>
